<svg xmlns="http://www.w3.org/2000/svg" version="1.1" viewBox="78.5875 85.4 347 355" style="max-height: 500px" width="347" height="355">
<path transform="translate(0,0)" fill="#FEFEFE" d="M0 0 C165 0 330 0 500 0 C500 165 500 330 500 500 C335 500 170 500 0 500 C0 335 0 170 0 0 Z"/>
<path transform="translate(248.9375,93.625)" fill="#0950AF" d="M0 0 C0.91046082 0.0012085 1.82092163 0.00241699 2.75897217 0.00366211 C31.1307712 0.10590507 57.22696466 6.2406961 82.0625 20.375 C83.06120117 20.94323486 83.06120117 20.94323486 84.08007812 21.52294922 C93.9462865 27.22991951 102.57163712 33.80016382 111.0625 41.375 C111.79855469 41.98988281 112.53460938 42.60476562 113.29296875 43.23828125 C144.39744405 69.25180451 162.58990813 110.24228428 166.6875 150 C167.11314609 155.13015549 167.16293719 160.23038411 167.0625 165.375 C164.7525 165.375 162.4425 165.375 160.0625 165.375 C158.87442661 161.81077984 158.83215794 158.46454981 158.6875 154.75 C156.53498219 112.45935594 136.23107528 75.12350558 105.875 46.3125 C72.99180889 17.27882209 31.019361 5.35747573 -12.23535156 7.12060547 C-48.99135847 9.6463084 -83.82698245 26.84557705 -109.9375 52.375 C-110.72382813 53.11105469 -111.51015625 53.84710938 -112.3203125 54.60546875 C-142.15102711 83.13693621 -156.94588944 124.76854752 -157.9375 165.375 C-159.9175 165.375 -161.8975 165.375 -163.9375 165.375 C-164.34708382 142.95501172 -164.34708382 142.95501172 -161.9375 132.375 C-161.69257813 131.12203125 -161.44765625 129.8690625 -161.1953125 128.578125 C-156.28234477 104.51112615 -145.0256781 82.58323864 -129.9375 63.375 C-129.174375 62.38757813 -128.41125 61.40015625 -127.625 60.3828125 C-114.89693551 44.33635977 -99.47709579 31.78973798 -81.9375 21.375 C-81.06254883 20.85510498 -81.06254883 20.85510498 -80.16992188 20.32470703 C-55.48248129 5.90111729 -28.38143997 -0.06950714 0 0 Z"/>
<path transform="translate(301,218)" fill="#1B3851" d="M0 0 C5.50963933 3.6617272 9.11250146 8.52690871 12.6875 14 C13.37682617 15.02867187 13.37682617 15.02867187 14.08007812 16.078125 C15.39631945 18.04591516 16.69914912 20.02201477 18 22 C18.77642593 23.16727769 19.55367655 24.33400756 20.33203125 25.5 C20.88246094 26.325 21.43289063 27.15 22 28 C20.80375 27.731875 19.6075 27.46375 18.375 27.1875 C17.13556641 26.91873047 17.13556641 26.91873047 15.87109375 26.64453125 C13.85643126 26.19226008 11.84889932 25.70758905 9.84765625 25.19921875 C-6.8318111 21.16786982 -24.43947723 21.40256564 -39.58203125 30.3046875 C-42.66767812 32.46812973 -45.23368492 34.88986228 -47.7578125 37.6796875 C-48.16773438 38.11539063 -48.57765625 38.55109375 -49 39 C-49.33 39 -49.66 39 -50 39 C-50.09935088 34.69504985 -50.17169268 30.39071817 -50.21972656 26.08496094 C-50.23976332 24.62227748 -50.26700104 23.15967334 -50.30175781 21.69726562 C-50.35063225 19.5870399 -50.37304659 17.47787864 -50.390625 15.3671875 C-50.41157227 14.09987793 -50.43251953 12.83256836 -50.45410156 11.52685547 C-49.91745392 7.35889215 -48.6172858 5.24663429 -46 2 C-43.52734375 0.35546875 -43.52734375 0.35546875 -40.9375 -0.8125 C-40.08027344 -1.21082031 -39.22304688 -1.60914063 -38.33984375 -2.01953125 C-26.94663895 -6.79364545 -11.20459532 -4.56483513 0 0 Z"/>
<path transform="translate(242,218)" fill="#1B3751" d="M0 0 C4.31101079 3.17624919 6.71393745 6.18494804 7.56054688 11.55664062 C7.7737193 15.7114382 7.61232015 19.84672569 7.4375 24 C7.4023321 25.45695606 7.37040271 26.91399408 7.34179688 28.37109375 C7.26522071 31.91578515 7.14474683 35.45736102 7 39 C6.55124512 38.60385498 6.10249023 38.20770996 5.64013672 37.79956055 C-8.1755298 25.75357836 -21.87874903 22.15813004 -40 23 C-48.15960509 23.91007002 -56.07794522 25.89307054 -64 28 C-62.4203566 23.18716836 -59.69164116 19.56403198 -56.6875 15.5625 C-56.21376953 14.91990234 -55.74003906 14.27730469 -55.25195312 13.61523438 C-46.02434101 1.18131107 -46.02434101 1.18131107 -39 -1 C-38.16855469 -1.2784375 -37.33710938 -1.556875 -36.48046875 -1.84375 C-24.92732347 -5.25753848 -10.62815107 -6.54348975 0 0 Z"/>
<path transform="translate(314.015625,254.125)" fill="#1E3A53" d="M0 0 C3.47251993 3.04723378 5.61270579 6.69469503 7.859375 10.6875 C8.46265625 11.72680664 8.46265625 11.72680664 9.078125 12.78710938 C10.05718006 14.4771449 11.02226007 16.17526362 11.984375 17.875 C8.27301322 17.875 6.39023121 16.70997244 3.109375 15 C-12.46652933 6.91926768 -32.01428464 6.6765686 -49.015625 10.875 C-52.01493177 11.84634533 -54.94538948 12.8966039 -57.87109375 14.0703125 C-60.015625 14.875 -60.015625 14.875 -62.015625 14.875 C-59.85482508 7.74436025 -54.61015482 2.5501496 -48.23828125 -1.05859375 C-35.06885689 -7.37714006 -12.3488899 -8.70180843 0 0 Z"/>
<path transform="translate(239.0625,256.3125)" fill="#1E3A53" d="M0 0 C3.68379908 3.1889604 6.40915227 6.52796018 8.9375 10.6875 C8.9375 11.3475 8.9375 12.0075 8.9375 12.6875 C8.30585938 12.50574219 7.67421875 12.32398438 7.0234375 12.13671875 C4.0029159 11.28801311 0.97083029 10.48916586 -2.0625 9.6875 C-3.0421875 9.40132813 -4.021875 9.11515625 -5.03125 8.8203125 C-21.25330173 4.60418519 -41.10969276 3.83630132 -55.91796875 12.32421875 C-57.66875692 13.38358141 -59.40017619 14.47627066 -61.1015625 15.61328125 C-62.07222656 16.14501953 -62.07222656 16.14501953 -63.0625 16.6875 C-63.7225 16.3575 -64.3825 16.0275 -65.0625 15.6875 C-63.48585255 13.09987251 -61.90155947 10.51748981 -60.3125 7.9375 C-59.8690625 7.20789063 -59.425625 6.47828125 -58.96875 5.7265625 C-53.3361101 -3.38506087 -53.3361101 -3.38506087 -48.49609375 -5.359375 C-32.76004994 -9.05231879 -13.67059014 -9.96673567 0 0 Z"/>
<path transform="translate(172,281)" fill="#233F57" d="M0 0 C51.48 0 102.96 0 156 0 C156 1.65 156 3.3 156 5 C104.52 5 53.04 5 0 5 C0 3.35 0 1.7 0 0 Z"/>
<path transform="translate(382,241)" fill="#FFD761" d="M0 0 C0.33 0 0.66 0 1 0 C1.4060956 14.64952277 1.71929421 27.71817068 -8.9375 39.0625 C-12.08703973 40.49410897 -13.75300005 40.12651019 -17 39 C-25.63193721 30.02064736 -27.64516301 16.99131844 -29 5 C-22.07062195 9.69409481 -16.45642195 14.73748981 -14 23 C-14 24.32 -14 25.64 -14 27 C-13.34 27 -12.68 27 -12 27 C-11.86283569 26.18208984 -11.86283569 26.18208984 -11.72290039 25.34765625 C-10.5590769 19.27214713 -8.44042652 14.37965036 -5.4375 9 C-5.02564453 8.23816406 -4.61378906 7.47632813 -4.18945312 6.69140625 C-1.19788099 1.19788099 -1.19788099 1.19788099 0 0 Z"/>
<path transform="translate(117,240)" fill="#FFD760" d="M0 0 C0.66 0 1.32 0 2 0 C3.84604796 3.74387096 5.67459183 7.49602791 7.5 11.25 C8.28697266 12.84521484 8.28697266 12.84521484 9.08984375 14.47265625 C9.58613281 15.49746094 10.08242187 16.52226562 10.59375 17.578125 C11.28500977 18.99206543 11.28500977 18.99206543 11.99023438 20.43457031 C13 23 13 23 13 27 C13.66 27 14.32 27 15 27 C15.04125 26.030625 15.0825 25.06125 15.125 24.0625 C16.33507596 15.76003436 22.6968942 9.91642252 29 5 C32.07916483 12.99783073 25.34168061 26.17996653 22.24609375 33.609375 C20.3739419 37.20108952 18.99150421 38.67668341 15.125 39.9375 C12 40 12 40 9.4375 38.625 C-0.88115282 27.51260465 -0.29704411 14.22511227 0 0 Z"/>
<path transform="translate(346,299)" fill="#FFD760" d="M0 0 C0.66 0 1.32 0 2 0 C5.65859862 7.77452207 6.47318445 16.08938518 3.98046875 24.3984375 C3.49513672 25.68621094 3.49513672 25.68621094 3 27 C3.72703125 26.43152344 4.4540625 25.86304688 5.203125 25.27734375 C12.09089775 19.9878875 19.08965288 14.68462423 27 11 C27.66 11.33 28.32 11.66 29 12 C15.27747253 34.61675824 15.27747253 34.61675824 4 38 C1.2337963 38.28419901 -1.20872735 38.19937662 -4 38 C-4 37.34 -4 36.68 -4 36 C-4.66 36 -5.32 36 -6 36 C-10.43821846 27.12356308 -5.34699756 15.79992399 -2.49023438 7.21582031 C-1.67227469 4.80608776 -0.84345813 2.4009074 0 0 Z"/>
<path transform="translate(146,178)" fill="#FFD760" d="M0 0 C0.33 0 0.66 0 1 0 C1.34063763 10.53453398 0.97877647 19.80478292 -2 30 C-1.55011719 29.54109375 -1.10023438 29.0821875 -0.63671875 28.609375 C5.52360096 22.73299788 12.10442026 19.33190371 20.6875 18.75 C21.450625 18.8325 22.21375 18.915 23 19 C19.13985487 28.20496146 8.06443256 36.96320817 -1 41 C-4.57921383 41.35792138 -7.01365653 41.05954722 -10 39 C-12.92902169 34.26527318 -12.55537924 29.38506958 -12 24 C-10.09116994 15.97605567 -5.89163012 5.89163012 0 0 Z"/>
<path transform="translate(152,298)" fill="#FFD760" d="M0 0 C3.78584756 3.37048071 4.71631461 7.2710923 6.1875 12 C6.58884155 13.27907227 6.58884155 13.27907227 6.99829102 14.58398438 C9.16154349 21.83566367 10.44574819 28.66275544 8 36 C4.15756 38.56162666 2.15364963 38.28515483 -2.30859375 37.7265625 C-11.04049 35.36933071 -18.28112643 26.5474965 -22.765625 19.046875 C-24.22560796 16.3861584 -25.63882367 13.71238068 -27 11 C-22.144676 12.3840634 -18.18153626 14.55067747 -14 17.3125 C-13.40960938 17.69083984 -12.81921875 18.06917969 -12.2109375 18.45898438 C-8.22577346 21.05285216 -4.60259155 23.89715819 -1 27 C-1.33 26.0925 -1.66 25.185 -2 24.25 C-4.35733534 15.88909121 -3.60314659 7.80681761 0 0 Z"/>
<path transform="translate(127,207)" fill="#FFD760" d="M0 0 C0.66 0 1.32 0 2 0 C6.57446809 19.34042553 6.57446809 19.34042553 7 29 C7.32871094 28.41992188 7.65742188 27.83984375 7.99609375 27.2421875 C12.8259527 19.31022403 18.87537572 14.33964725 28 12 C24.10951014 22.63676482 17.57195954 35.61869364 8 42 C4.5625 42.0625 4.5625 42.0625 1 41 C-0.86157474 38.7772242 -1.77583096 36.6837552 -3 34 C-3.33 33.34 -3.66 32.68 -4 32 C-4.69831297 20.58658957 -4.30985061 10.71690532 0 0 Z"/>
<path transform="translate(314,340)" fill="#FFD760" d="M0 0 C1.64095135 3.28190271 0.01951092 6.09899282 -1.05078125 9.46484375 C-3.15420905 15.08264063 -6.69819758 18.93072744 -11 23 C-11.33 23.33 -11.66 23.66 -12 24 C-11.05640625 23.83886719 -10.1128125 23.67773438 -9.140625 23.51171875 C-4.34858104 22.83007101 0.41719026 22.81603276 5.25 22.8125 C6.1471875 22.80025391 7.044375 22.78800781 7.96875 22.77539062 C9.26039063 22.77249023 9.26039063 22.77249023 10.578125 22.76953125 C11.35575195 22.76542236 12.13337891 22.76131348 12.93457031 22.75708008 C15 23 15 23 18 25 C15.41909233 26.31746333 12.83549542 27.62909617 10.25 28.9375 C9.52039063 29.31068359 8.79078125 29.68386719 8.0390625 30.06835938 C6.97558594 30.60493164 6.97558594 30.60493164 5.890625 31.15234375 C5.24125977 31.48226318 4.59189453 31.81218262 3.92285156 32.15209961 C-0.60611448 34.14919192 -5.04797075 34.21434254 -9.9375 34.25 C-10.64068359 34.270625 -11.34386719 34.29125 -12.06835938 34.3125 C-16.58866151 34.34639167 -19.36392219 33.70393262 -23 31 C-22.67 30.01 -22.34 29.02 -22 28 C-22.66 27.67 -23.32 27.34 -24 27 C-23.52862759 19.45804138 -17.29831904 14.10934031 -12.0625 9.3125 C-8.19914989 5.93426042 -4.25407239 2.86687487 0 0 Z"/>
<path transform="translate(326,156)" fill="#FFD75F" d="M0 0 C8.63814681 3.98389033 14.03392307 11.13047597 19 19 C19.639375 19.99 20.27875 20.98 20.9375 22 C22.48577712 26.37160599 22.68261514 30.41784781 22 35 C20.5 37.625 20.5 37.625 18 39 C5.98259939 40.93136795 -5.38506169 32.2497099 -15 26 C-14.67 25.34 -14.34 24.68 -14 24 C-4.69120137 23.55317767 2.56884314 23.55628439 11 28 C10.57195068 27.16879639 10.57195068 27.16879639 10.13525391 26.32080078 C7.99133003 21.9379749 6.22416881 17.38812762 4.375 12.875 C3.95476562 11.86050781 3.53453125 10.84601563 3.1015625 9.80078125 C2.70453125 8.83269531 2.3075 7.86460937 1.8984375 6.8671875 C1.53411621 5.98144043 1.16979492 5.09569336 0.79443359 4.18310547 C0 2 0 2 0 0 Z"/>
<path transform="translate(371,208)" fill="#FFD75F" d="M0 0 C0.66 0 1.32 0 2 0 C5.68299292 11.29560775 9.46360038 25.5172325 4.25 36.9375 C2.06917565 39.90584425 1.25314692 40.68622913 -2 42 C-5.31583637 42.22607975 -7.20856033 41.63110491 -9.8125 39.5546875 C-16.89958727 32.26756148 -21.32312054 22.92504498 -26 14 C-23 13 -23 13 -20.765625 13.93359375 C-14.34393736 17.77264614 -8.42600213 22.14799575 -5 29 C-4.83564453 27.36804688 -4.83564453 27.36804688 -4.66796875 25.703125 C-3.73667327 16.92190986 -2.45996177 8.51146771 0 0 Z"/>
<path transform="translate(353,179)" fill="#FFD75F" d="M0 0 C3.56506999 3.15673598 5.5919381 6.63795507 7.625 10.875 C7.9240625 11.47441406 8.223125 12.07382813 8.53125 12.69140625 C12.24168381 20.26003451 13.85641176 26.58926962 13 35 C11.625 38.1875 11.625 38.1875 10 40 C9.34 40 8.68 40 8 40 C7.67 40.66 7.34 41.32 7 42 C-5.21907206 40.52316251 -14.02361668 29.62649606 -22 21 C-22 20.67 -22 20.34 -22 20 C-12.05360563 19.19787142 -5.56521665 22.7224798 2 29 C1.855625 28.07960937 1.71125 27.15921875 1.5625 26.2109375 C0.26623462 17.37112774 -0.24828774 8.95215232 0 0 Z"/>
<path transform="translate(185,339)" fill="#FFD75F" d="M0 0 C8.74460736 3.87056391 21.32529678 13.81324195 25 23 C25.07586222 27.32414626 24.70169625 29.23982906 21.75 32.4375 C15.23401144 36.06270227 6.23896895 34.51806863 -0.6875 32.875 C-6.28092352 31.16407045 -11.26851068 28.42802046 -16 25 C-16 24.67 -16 24.34 -16 24 C-10.21354356 22.74593862 -4.51131884 22.88813087 1.375 22.9375 C2.90833984 22.94426758 2.90833984 22.94426758 4.47265625 22.95117188 C6.98183194 22.962897 9.4908849 22.97930824 12 23 C11.46890625 22.47792969 10.9378125 21.95585937 10.390625 21.41796875 C4.59296528 15.3769766 0 8.674384 0 0 Z"/>
<path transform="translate(166,320)" fill="#FFD760" d="M0 0 C17.67439275 21.88074387 17.67439275 21.88074387 17 33 C16.01 33.495 16.01 33.495 15 34 C15 34.66 15 35.32 15 36 C11.29400659 38.37183578 8.33372887 38.41939312 4 38 C-7.01655782 35.0296653 -16.11737796 27.92880696 -23 19 C-15.7075584 19.26517969 -9.5409182 21.39719684 -2.76586914 23.91650391 C1.0131784 25.44453251 1.0131784 25.44453251 5 26 C4.45859375 25.195625 4.45859375 25.195625 3.90625 24.375 C-0.86695018 16.31359525 -0.50543025 9.05281732 0 0 Z"/>
<path transform="translate(146,271)" fill="#FFD75F" d="M0 0 C0.33 0 0.66 0 1 0 C1.07465394 4.14425088 1.12883721 8.28813624 1.16479492 12.43286133 C1.17979877 13.84015734 1.20020863 15.24740724 1.22631836 16.65454102 C1.26307665 18.68777907 1.27980984 20.72039432 1.29296875 22.75390625 C1.3086792 23.97408447 1.32438965 25.1942627 1.34057617 26.45141602 C0.94271907 30.59683032 -0.18986188 33.27742067 -2 37 C-5.09209295 37.93566879 -7.77421406 38.32746615 -11 38 C-21.26660218 32.44731157 -25.43074719 20.71886168 -28.65234375 10.15625 C-29.03439487 7.78667452 -28.74535067 6.26175377 -28 4 C-21.09667647 10.46268586 -15.48508286 17.33644451 -10 25 C-9.90203125 24.39414062 -9.8040625 23.78828125 -9.703125 23.1640625 C-8.20318256 14.75921263 -6.09221202 6.30228829 0 0 Z"/>
<path transform="translate(333,322)" fill="#FFD75F" d="M0 0 C0.33 0 0.66 0 1 0 C1.59263637 9.87727277 1.3427065 16.41350741 -4 25 C-4 25.33 -4 25.66 -4 26 C-2.9378125 25.59007812 -1.875625 25.18015625 -0.78125 24.7578125 C0.64574205 24.21330238 2.07283059 23.66904508 3.5 23.125 C4.19609375 22.85558594 4.8921875 22.58617187 5.609375 22.30859375 C18.66706991 17.35150587 18.66706991 17.35150587 24 19 C15.31638817 28.6703859 5.47354592 35.85664101 -7.625 37.4375 C-11 37 -11 37 -14 35.0625 C-16.38397879 31.41203248 -16.57758123 29.78358859 -15.83203125 25.58203125 C-12.81877696 16.23104022 -6.11299661 7.5741519 0 0 Z"/>
<path transform="translate(172,155)" fill="#FFD75F" d="M0 0 C1.37679137 4.13037411 -0.16043043 6.81904153 -1.6875 10.6875 C-2.10153076 11.76354492 -2.10153076 11.76354492 -2.52392578 12.86132812 C-4.42258827 17.72561526 -6.51106256 22.40503857 -9 27 C-8.030625 26.505 -7.06125 26.01 -6.0625 25.5 C0.8582051 22.82466391 8.71228109 23.77639953 16 24 C16.495 24.99 16.495 24.99 17 26 C-5.3550931 39.50690033 -5.3550931 39.50690033 -16 39 C-16.495 37.515 -16.495 37.515 -17 36 C-17.99 35.67 -18.98 35.34 -20 35 C-20.88465665 25.76025277 -18.62558887 19.56530951 -12.875 12.32421875 C-8.89967687 7.79154457 -4.77816213 3.67550933 0 0 Z"/>
<path transform="translate(209,351)" fill="#FFD75E" d="M0 0 C6.05342841 1.72955097 11.60930367 4.11389203 17.25 6.875 C17.93513672 7.20242188 18.62027344 7.52984375 19.32617188 7.8671875 C23.60970909 10.00686658 26.90919289 12.2380462 30 16 C30.90738141 19.02648335 30.46433133 20.7496807 30 24 C27.23956627 28.25566866 22.73371777 29.69227882 18 31 C14.83992985 31.37754842 11.74122851 31.37663899 8.5625 31.3125 C7.76779297 31.31572266 6.97308594 31.31894531 6.15429688 31.32226562 C0.55381029 31.27213922 -4.58707263 30.41414448 -10 29 C-10 28.34 -10 27.68 -10 27 C-2.05133191 24.18953976 5.64768146 21.59473725 14.0234375 20.359375 C15.99514129 20.19459537 15.99514129 20.19459537 17 19 C16.12988281 18.47212891 16.12988281 18.47212891 15.2421875 17.93359375 C8.71139462 13.80604643 4.26781185 9.40171777 0 3 C0 2.01 0 1.02 0 0 Z"/>
<path transform="translate(353,273)" fill="#FFD75F" d="M0 0 C0.66 0 1.32 0 2 0 C3.47265625 2.08203125 3.47265625 2.08203125 5.0625 4.8125 C5.58972656 5.70582031 6.11695313 6.59914063 6.66015625 7.51953125 C8.8704654 11.61150299 9.24424844 15.09558469 9.5625 19.6875 C9.64628906 20.86699219 9.73007812 22.04648437 9.81640625 23.26171875 C9.87699219 24.16535156 9.93757813 25.06898438 10 26 C10.38929688 25.40574219 10.77859375 24.81148438 11.1796875 24.19921875 C23.30769231 6.23076923 23.30769231 6.23076923 30 4 C29.21922146 15.19115913 24.24746502 26.15241439 16.125 33.8125 C12.84390246 36.60204734 10.4250501 37.88937375 6 38 C6 37.34 6 36.68 6 36 C5.071875 35.9071875 5.071875 35.9071875 4.125 35.8125 C2 35 2 35 0.87939453 32.88989258 C-0.1688727 29.44504549 -0.22595369 26.54955841 -0.1953125 22.94921875 C-0.1924826 22.29041214 -0.18965271 21.63160553 -0.18673706 20.95283508 C-0.17560924 18.86419938 -0.15051948 16.77600444 -0.125 14.6875 C-0.11496059 13.26498018 -0.10583642 11.8424536 -0.09765625 10.41992188 C-0.07569447 6.94647319 -0.04121646 3.47327967 0 0 Z"/>
<path transform="translate(290,352)" fill="#FFD75E" d="M0 0 C0.66 0.33 1.32 0.66 2 1 C-2.8247514 9.05952791 -8.51447626 14.44407793 -16 20 C-14.45892578 20.36351562 -14.45892578 20.36351562 -12.88671875 20.734375 C-4.71965075 22.69715682 3.17908884 24.88489132 11 28 C6.64303833 32.35696167 -2.07685839 31.24655129 -7.9375 31.3125 C-8.79279297 31.34150391 -9.64808594 31.37050781 -10.52929688 31.40039062 C-17.319148 31.46771943 -22.41396129 29.97649015 -27.68334961 25.6027832 C-29.59647708 23.27389727 -29.65825997 20.9780086 -29.53466797 18.04052734 C-28.51476673 14.14813715 -25.18396768 12.21155109 -22 10 C-18.8296071 8.20554555 -15.57191847 6.67902599 -12.25 5.1875 C-10.97576172 4.59678711 -10.97576172 4.59678711 -9.67578125 3.99414062 C-6.47168731 2.51863765 -3.34906993 1.11635664 0 0 Z"/>
<path transform="translate(250,118)" fill="#FFD760" d="M0 0 C0.66 0 1.32 0 2 0 C2.99 3.96 3.98 7.92 5 12 C9.29 12 13.58 12 18 12 C14.88742431 15.11257569 12.71872691 16.9340406 9 19 C9.13277344 19.59167969 9.26554687 20.18335938 9.40234375 20.79296875 C10.31005178 24.85446525 11.2091113 28.91374171 12 33 C6.18181818 29.16528926 6.18181818 29.16528926 3.9375 27.125 C2.02396553 25.72308377 2.02396553 25.72308377 -0.3125 26.5 C-3.75912584 28.42369814 -6.83410065 30.64109461 -10 33 C-9.7834375 32.24074219 -9.566875 31.48148438 -9.34375 30.69921875 C-9.0653125 29.70535156 -8.786875 28.71148437 -8.5 27.6875 C-8.2215625 26.70136719 -7.943125 25.71523437 -7.65625 24.69921875 C-6.88187804 21.97712797 -6.88187804 21.97712797 -7 19 C-8.99815803 17.34063127 -8.99815803 17.34063127 -11.5 15.875 C-13.01257651 14.93664235 -14.51623792 13.98328677 -16 13 C-16 12.67 -16 12.34 -16 12 C-11.71 12 -7.42 12 -3 12 C-2.690625 10.576875 -2.38125 9.15375 -2.0625 7.6875 C-1.48800637 5.04482928 -0.85697694 2.57093082 0 0 Z"/>
<path transform="translate(313,405)" fill="#1156B2" d="M0 0 C3.64345196 2.94576967 5.79099354 5.11894185 6.3125 9.8125 C5.92835642 13.7307645 4.70743683 15.21293267 2 18 C-1.1969894 19.5984947 -4.52997971 19.50260215 -8 19 C-10.375 17.25 -10.375 17.25 -12 15 C-12.433125 14.401875 -12.86625 13.80375 -13.3125 13.1875 C-14.38125273 9.78692315 -13.91431953 7.4134596 -13 4 C-9.40634994 -0.24704098 -5.31922703 -1.27876367 0 0 Z"/>
<path transform="translate(403.4375,300.4375)" fill="#0E54B1" d="M0 0 C3.78803773 0.59811122 6.32158714 1.5275082 9.5625 3.5625 C11.91870437 7.09680656 12.05241613 8.39821287 11.5625 12.5625 C10.125 15.875 10.125 15.875 7.5625 18.5625 C4.4989641 19.66118745 1.79350596 19.91466847 -1.4375 19.5625 C-6.83509036 16.76731928 -6.83509036 16.76731928 -8.4375 13.5625 C-8.91955722 9.38467079 -8.84750905 6.53787315 -6.375 3.125 C-3.4375 0.5625 -3.4375 0.5625 0 0 Z"/>
<path transform="translate(202,154)" fill="#FFD75F" d="M0 0 C-19.79920159 20.57291788 -19.79920159 20.57291788 -30 24 C-31.32 24 -32.64 24 -34 24 C-33.78180848 18.65430778 -32.67127729 15.66292968 -28.98046875 11.76171875 C-22.13559806 5.67288901 -9.47794127 -3.15931376 0 0 Z"/>
<path transform="translate(365.625,366.8125)" fill="#0D53B1" d="M0 0 C3.90120516 1.37264626 5.71888334 3.06265687 8.375 6.1875 C8.705 6.5175 9.035 6.8475 9.375 7.1875 C9.9375 10.25 9.9375 10.25 9.375 14.1875 C6.98913376 17.18418976 4.27576654 19.69465376 1.375 22.1875 C-3.29166667 18.1875 -7.95833333 14.1875 -12.625 10.1875 C-10.11065845 4.55782794 -6.35243736 0.32857435 0 0 Z"/>
<path transform="translate(300,155)" fill="#FFD65C" d="M0 0 C11.93553533 1.53155099 22.44597837 6.4315726 30 16 C31.85077479 19.18477481 32.20507581 21.30863539 32 25 C21.97024261 23.3196218 15.11832965 16.85637512 8 10 C7.20464844 9.24460938 6.40929687 8.48921875 5.58984375 7.7109375 C1.48208414 3.72633824 1.48208414 3.72633824 0 2 C0 1.34 0 0.68 0 0 Z"/>
<path transform="translate(156,385)" fill="#0F54B1" d="M0 0 C2.475 0.99 2.475 0.99 5 2 C4.67 5.63 4.34 9.26 4 13 C6.31 11.02 8.62 9.04 11 7 C15.875 8.75 15.875 8.75 17 11 C12.05 18.425 12.05 18.425 7 26 C5.68 25.34 4.36 24.68 3 24 C4.875 19.25 4.875 19.25 6 17 C4.88625 18.0209375 4.88625 18.0209375 3.75 19.0625 C1 21 1 21 -1.3125 20.75 C-1.869375 20.5025 -2.42625 20.255 -3 20 C-2.835 19.05125 -2.67 18.1025 -2.5 17.125 C-1.9473365 14.19831099 -1.9473365 14.19831099 -2 12 C-3.485 14.475 -3.485 14.475 -5 17 C-6.32 16.67 -7.64 16.34 -9 16 C-8.37695259 11.92546771 -6.23467379 9.10460299 -3.9375 5.75 C-3.20402344 4.67234375 -2.47054687 3.5946875 -1.71484375 2.484375 C-1.14894531 1.66453125 -0.58304688 0.8446875 0 0 Z"/>
<path transform="translate(266.4375,414.8125)" fill="#1559B3" d="M0 0 C0.96808594 -0.01417969 1.93617188 -0.02835937 2.93359375 -0.04296875 C5.5625 0.1875 5.5625 0.1875 8.5625 2.1875 C8.75 5.125 8.75 5.125 8.5625 8.1875 C8.5625 11.79779169 9.52342582 14.74556676 10.5625 18.1875 C8.5825 18.1875 6.6025 18.1875 4.5625 18.1875 C4.5625 16.5375 4.5625 14.8875 4.5625 13.1875 C2.9125 13.1875 1.2625 13.1875 -0.4375 13.1875 C-0.4375 15.4975 -0.4375 17.8075 -0.4375 20.1875 C-2.0875 20.1875 -3.7375 20.1875 -5.4375 20.1875 C-6.67509823 16.47470531 -6.79358897 12.87443654 -7 9 C-7.04318359 8.25041016 -7.08636719 7.50082031 -7.13085938 6.72851562 C-7.23672685 4.88171625 -7.3375976 3.03463166 -7.4375 1.1875 C-4.84996844 -0.10626578 -2.88791015 0.01917603 0 0 Z"/>
<path transform="translate(401,278)" fill="#1055B2" d="M0 0 C6.33881314 0.62197123 12.67094142 1.28542887 19 2 C19 3.65 19 5.3 19 7 C14.05 9.475 14.05 9.475 9 12 C11.64 12.66 14.28 13.32 17 14 C17 15.65 17 17.3 17 19 C15.865625 18.855625 14.73125 18.71125 13.5625 18.5625 C9.6750919 18.07051074 5.78261033 17.66171808 1.8828125 17.28125 C0 17 0 17 -2 16 C-2.0625 13.75 -2.0625 13.75 -1 11 C1.86674844 9.30699573 4.87413371 8.13036377 8 7 C5.36 6.34 2.72 5.68 0 5 C0 3.35 0 1.7 0 0 Z"/>
<path transform="translate(348,380)" fill="#0B52B0" d="M0 0 C4.20532472 1.52394795 6.25004166 4.6152865 8.75 8.125 C9.16121094 8.68832031 9.57242187 9.25164062 9.99609375 9.83203125 C11.00476085 11.21601634 12.00339286 12.60730541 13 14 C11.67578125 15.5078125 11.67578125 15.5078125 10 17 C5.41949617 16.79642205 1.98252746 15.1809079 -2 13 C-0.02 15.97 1.96 18.94 4 22 C2.35 22.66 0.7 23.32 -1 24 C-4.3 19.71 -7.6 15.42 -11 11 C-10.34 9.68 -9.68 8.36 -9 7 C-4.80530429 7.59924224 -0.99000166 8.57499941 3 10 C1.35 8.02 -0.3 6.04 -2 4 C-1.34 2.68 -0.68 1.36 0 0 Z"/>
<path transform="translate(227,414)" fill="#0F54B1" d="M0 0 C2.4375 1.875 2.4375 1.875 4 4 C4 4.99 4 5.98 4 7 C2.68 7 1.36 7 0 7 C-0.66 6.01 -1.32 5.02 -2 4 C-3.65 4.33 -5.3 4.66 -7 5 C-7.185625 6.299375 -7.37125 7.59875 -7.5625 8.9375 C-7.66691406 9.66839844 -7.77132812 10.39929688 -7.87890625 11.15234375 C-7.91886719 11.76207031 -7.95882812 12.37179687 -8 13 C-6.93354885 14.29633621 -6.93354885 14.29633621 -4.4375 14.0625 C-3.633125 14.041875 -2.82875 14.02125 -2 14 C-2.66 13.34 -3.32 12.68 -4 12 C-4 11.01 -4 10.02 -4 9 C-1.36 9.33 1.28 9.66 4 10 C3.67 13.3 3.34 16.6 3 20 C1.68 20 0.36 20 -1 20 C-1 19.34 -1 18.68 -1 18 C-1.66 18.33 -2.32 18.66 -3 19 C-5.8125 19.4375 -5.8125 19.4375 -9 19 C-12.59357269 15.79703304 -13.77928213 14.2360201 -14.625 9.5 C-13.8007349 4.88411544 -12.29033886 3.29033886 -9 0 C-5.81452856 -1.59273572 -3.39809153 -0.76164121 0 0 Z"/>
<path transform="translate(243,365)" fill="#FFDA6C" d="M0 0 C4.62 0 9.24 0 14 0 C14 5.94 14 11.88 14 18 C9.38 18 4.76 18 0 18 C0 12.06 0 6.12 0 0 Z"/>
<path transform="translate(126,355)" fill="#0D53B1" d="M0 0 C1.32 0.66 2.64 1.32 4 2 C4 2.66 4 3.32 4 4 C2 5.625 2 5.625 0 7 C0.66 8.32 1.32 9.64 2 11 C2.763125 10.67 3.52625 10.34 4.3125 10 C7 9 7 9 10 9 C10.33 10.32 10.66 11.64 11 13 C9.44384991 14.29930979 7.8797832 15.58914138 6.3125 16.875 C5.44238281 17.59429687 4.57226562 18.31359375 3.67578125 19.0546875 C1.1522354 20.88932376 -1.06338486 21.99467229 -4 23 C-4.66 21.68 -5.32 20.36 -6 19 C-4.68 18.01 -3.36 17.02 -2 16 C-2.66 14.35 -3.32 12.7 -4 11 C-6.31 12.32 -8.62 13.64 -11 15 C-11.66 13.68 -12.32 12.36 -13 11 C-11.39801112 9.53927468 -9.79332884 8.08150284 -8.1875 6.625 C-7.29417969 5.81289063 -6.40085937 5.00078125 -5.48046875 4.1640625 C-3 2 -3 2 0 0 Z"/>
<path transform="translate(108,318)" fill="#1156B2" d="M0 0 C0.33 1.65 0.66 3.3 1 5 C-0.32 5.99 -1.64 6.98 -3 8 C-1.88625 8.226875 -0.7725 8.45375 0.375 8.6875 C2.169375 9.3371875 2.169375 9.3371875 4 10 C4.66 11.65 5.32 13.3 6 15 C0.555 14.505 0.555 14.505 -5 14 C-7.475 18.455 -7.475 18.455 -10 23 C-10.66 23 -11.32 23 -12 23 C-13.01911045 19.10885099 -13.16782969 17.39403493 -11.5625 13.625 C-11.046875 12.75875 -10.53125 11.8925 -10 11 C-11.98 11.33 -13.96 11.66 -16 12 C-16.66 10.35 -17.32 8.7 -18 7 C-15.37690901 5.82887054 -12.75171858 4.66294036 -10.125 3.5 C-9.37863281 3.16613281 -8.63226563 2.83226562 -7.86328125 2.48828125 C-7.14785156 2.17246094 -6.43242188 1.85664063 -5.6953125 1.53125 C-5.03547363 1.23798828 -4.37563477 0.94472656 -3.69580078 0.64257812 C-2 0 -2 0 0 0 Z"/>
<path transform="translate(333,393)" fill="#1156B2" d="M0 0 C1.01577335 1.69900185 2.0119898 3.40970451 3 5.125 C3.556875 6.07632812 4.11375 7.02765625 4.6875 8.0078125 C6.13804173 11.31470228 6.41187512 13.42874132 6 17 C3.50461213 19.71556916 1.46566922 20.83507549 -2 22.0625 C-5 22 -5 22 -7.5625 20.1875 C-10.91228914 16.35916955 -12.9056678 11.58970674 -15 7 C-13.35 6.34 -11.7 5.68 -10 5 C-8.02 8.63 -6.04 12.26 -4 16 C-2.68 16 -1.36 16 0 16 C-0.51742823 10.69636066 -2.32610623 7.48524117 -5 3 C-5 2.34 -5 1.68 -5 1 C-3 0 -3 0 0 0 Z"/>
<path transform="translate(114.375,338.4375)" fill="#0E54B1" d="M0 0 C3.26056319 0.69869211 4.69549391 2.19971902 6.67578125 4.8359375 C8.16402344 7.54294593 8.16948761 9.56781813 7.625 12.5625 C6.635 13.2225 5.645 13.8825 4.625 14.5625 C3.12678941 11.19152617 2.625 9.35807881 2.625 5.5625 C1.635 5.5625 0.645 5.5625 -0.375 5.5625 C-0.21 6.0575 -0.045 6.5525 0.125 7.0625 C0.84461907 10.66059533 0.8028036 13.88789233 0.625 17.5625 C-1.375 19.5625 -1.375 19.5625 -4.25 20 C-7.375 19.5625 -7.375 19.5625 -9.6875 17.5 C-11.62665093 14.12444098 -12.07263318 11.41767691 -12.375 7.5625 C-11.055 6.9025 -9.735 6.2425 -8.375 5.5625 C-7.715 8.5325 -7.055 11.5025 -6.375 14.5625 C-5.715 14.5625 -5.055 14.5625 -4.375 14.5625 C-4.48199219 13.80324219 -4.58898437 13.04398437 -4.69921875 12.26171875 C-4.81910156 11.26785156 -4.93898438 10.27398437 -5.0625 9.25 C-5.19011719 8.26386719 -5.31773438 7.27773438 -5.44921875 6.26171875 C-5.375 3.5625 -5.375 3.5625 -4.04296875 1.7421875 C-2.375 0.5625 -2.375 0.5625 0 0 Z"/>
<path transform="translate(86,279)" fill="#0F54B1" d="M0 0 C0.24042276 4.08718695 -0.57741188 7.17679443 -2 11 C-1.01 10.67 -0.02 10.34 1 10 C1.98703952 7.93502613 1.98703952 7.93502613 2.625 5.5 C3.92825112 1.07174888 3.92825112 1.07174888 5 0 C7.875 -0.3125 7.875 -0.3125 11 0 C13.53468405 2.19672617 13.94439772 3.62667041 14.4375 6.9375 C13.89979602 10.70142784 12.6631143 12.3368857 10 15 C9.34 15 8.68 15 8 15 C7.90021879 11.50765756 8.22157062 8.40562852 9 5 C8.34 4.67 7.68 4.34 7 4 C6.87882812 4.69867188 6.75765625 5.39734375 6.6328125 6.1171875 C6.38144531 7.48230469 6.38144531 7.48230469 6.125 8.875 C5.96257812 9.77992188 5.80015625 10.68484375 5.6328125 11.6171875 C5 14 5 14 3 16 C0.0625 16.4375 0.0625 16.4375 -3 16 C-5.56086526 13.18304822 -5.97392673 11.21231089 -6.4375 7.4375 C-6 4 -6 4 -4.125 1.5625 C-2 0 -2 0 0 0 Z"/>
<path transform="translate(179.75,399.625)" fill="#0D53B1" d="M0 0 C3.56906039 0.03851504 4.20534707 0.3415103 7.25 2.625 C9.25 5.375 9.25 5.375 9.25 9.375 C6.775 8.88 6.775 8.88 4.25 8.375 C3.92 7.385 3.59 6.395 3.25 5.375 C1.23491642 4.64176204 1.23491642 4.64176204 -0.75 4.375 C0.02537109 5.13683594 0.02537109 5.13683594 0.81640625 5.9140625 C6.21984091 11.56070459 6.21984091 11.56070459 6.375 15.75 C5.25 18.375 5.25 18.375 2.25 20.375 C-1.54187793 21.09238231 -2.75227908 20.37353795 -6.0625 18.25 C-8.75 15.375 -8.75 15.375 -9.125 12.0625 C-9.00125 11.175625 -8.8775 10.28875 -8.75 9.375 C-6.8125 10.1875 -6.8125 10.1875 -4.75 11.375 C-4.42 12.365 -4.09 13.355 -3.75 14.375 C-1.24552484 15.59369929 -1.24552484 15.59369929 1.25 16.375 C-0.2937279 13.59628979 -1.57464677 11.52599861 -4 9.4375 C-5.75 7.375 -5.75 7.375 -5.5625 4.1875 C-4.48226545 0.44822654 -4.48226545 0.44822654 0 0 Z"/>
<path transform="translate(243,416)" fill="#1F60B7" d="M0 0 C1.98 0 3.96 0 6 0 C6.83857688 2.60258324 7.67103344 5.20685647 8.5 7.8125 C8.73847656 8.55048828 8.97695312 9.28847656 9.22265625 10.04882812 C10.19940136 13.13255196 11 15.74495809 11 19 C9.35 19 7.7 19 6 19 C6 17.68 6 16.36 6 15 C3.69 15.33 1.38 15.66 -1 16 C-1.33 16.99 -1.66 17.98 -2 19 C-3.65 19 -5.3 19 -7 19 C-4.94235079 12.54646385 -2.57616518 6.2638737 0 0 Z"/>
<path transform="translate(200,408)" fill="#1055B2" d="M0 0 C2.97 0.495 2.97 0.495 6 1 C6 7.6 6 14.2 6 21 C4.68 21 3.36 21 2 21 C2 19.35 2 17.7 2 16 C-0.31 15.67 -2.62 15.34 -5 15 C-5.33 15.66 -5.66 16.32 -6 17 C-7.65 16.67 -9.3 16.34 -11 16 C-8.81117576 12.22306984 -6.3971069 8.70426021 -3.8125 5.1875 C-3.09707031 4.21167969 -2.38164062 3.23585938 -1.64453125 2.23046875 C-1.10183594 1.49441406 -0.55914062 0.75835937 0 0 Z"/>
<path transform="translate(83,302)" fill="#2061B7" d="M0 0 C2.39591038 -0.02712351 4.79150957 -0.0468982 7.1875 -0.0625 C7.86103516 -0.07087891 8.53457031 -0.07925781 9.22851562 -0.08789062 C12.95434131 -0.10606538 16.3788042 0.10700608 20 1 C20.33 2.65 20.66 4.3 21 6 C18.89965153 7.65091584 16.79504167 9.29581238 14.6875 10.9375 C13.79514648 11.64036133 13.79514648 11.64036133 12.88476562 12.35742188 C10.27299116 14.38555959 8.16107597 15.94630801 5 17 C4.375 14.625 4.375 14.625 4 12 C4.66 11.34 5.32 10.68 6 10 C5.67958603 7.39719432 5.67958603 7.39719432 5 5 C3.68 4.67 2.36 4.34 1 4 C0.67 2.68 0.34 1.36 0 0 Z"/>
<path transform="translate(146.48046875,374.76953125)" fill="#1F60B7" d="M0 0 C0.75216797 0.60908203 0.75216797 0.60908203 1.51953125 1.23046875 C0.99446297 6.44791941 -0.26032465 10.45697986 -2.54296875 15.16796875 C-3.09082031 16.31136719 -3.63867188 17.45476562 -4.203125 18.6328125 C-4.62464844 19.49003906 -5.04617187 20.34726562 -5.48046875 21.23046875 C-6.47046875 20.57046875 -7.46046875 19.91046875 -8.48046875 19.23046875 C-8.15046875 17.25046875 -7.82046875 15.27046875 -7.48046875 13.23046875 C-11.12840059 11.95793439 -14.67412305 10.90217681 -18.48046875 10.23046875 C-17.05399493 5.95104728 -13.94609288 4.92189427 -10.16796875 2.91796875 C-9.49056641 2.53318359 -8.81316406 2.14839844 -8.11523438 1.75195312 C-3.07375664 -0.95359064 -3.07375664 -0.95359064 0 0 Z"/>
<path transform="translate(374,352)" fill="#1F60B6" d="M0 0 C1.85766602 0.34545898 1.85766602 0.34545898 4.25390625 0.99609375 C5.10791016 1.22490234 5.96191406 1.45371094 6.84179688 1.68945312 C7.73962891 1.93630859 8.63746094 2.18316406 9.5625 2.4375 C10.46419922 2.68048828 11.36589844 2.92347656 12.29492188 3.17382812 C14.53141955 3.7773275 16.76629092 4.38627431 19 5 C18.19140625 6.93359375 18.19140625 6.93359375 17 9 C15.00827818 9.69100553 13.00838196 10.35902703 11 11 C9.95550089 14.13349732 10.06576355 14.98968256 11 18 C10.01 18.66 9.02 19.32 8 20 C7.45730469 19.25234375 6.91460937 18.5046875 6.35546875 17.734375 C5.64003906 16.74953125 4.92460937 15.7646875 4.1875 14.75 C3.47980469 13.77546875 2.77210938 12.8009375 2.04296875 11.796875 C0.37845179 9.51810991 -1.30001823 7.25234178 -3 5 C-1.125 1.125 -1.125 1.125 0 0 Z"/>
<path transform="translate(416,261)" fill="#FFDE5D" d="M0 0 C2.375 1 2.375 1 4 3 C4.5659239 7.45665069 4.82483134 9.73102871 2.375 13.5 C-0.72140596 15.45562482 -2.39853135 15.60024477 -6 15 C-8.375 13.5 -8.375 13.5 -10 11 C-10.58428517 8.0368395 -10.39344818 6.09840439 -10 3 C-7.19663749 -0.45029232 -4.26211439 -0.5327643 0 0 Z"/>
<path transform="translate(91,261)" fill="#FFDE5D" d="M0 0 C2.4375 1 2.4375 1 4 3 C4.6502362 6.54674293 4.69131398 9.73936863 2.9375 12.9375 C-0.09582493 14.60093625 -2.55577787 14.93957505 -6 15 C-8.4375 13.5625 -8.4375 13.5625 -10 11 C-10.62413468 7.46796513 -10.66160604 4.24537607 -8.9375 1 C-5.85873258 -0.58904125 -3.39844421 -0.35773097 0 0 Z"/>
<path transform="translate(303,292)" fill="#3B5369" d="M0 0 C1.32 0 2.64 0 4 0 C4.33 3.63 4.66 7.26 5 11 C6.32 7.7 7.64 4.4 9 1 C10.32 1 11.64 1 13 1 C13.67305018 2.60149886 14.33822227 4.20631029 15 5.8125 C15.37125 6.70582031 15.7425 7.59914063 16.125 8.51953125 C17 11 17 11 17 14 C16.01 14 15.02 14 14 14 C13.67 13.34 13.34 12.68 13 12 C11.68 12 10.36 12 9 12 C8.67 12.66 8.34 13.32 8 14 C5.36 14 2.72 14 0 14 C0 9.38 0 4.76 0 0 Z"/>
<path transform="translate(294,410)" fill="#0A51B0" d="M0 0 C0 1.32 0 2.64 0 4 C-2.64 4.99 -5.28 5.98 -8 7 C-8 7.99 -8 8.98 -8 10 C-7.34 9.67 -6.68 9.34 -6 9 C-4.00039988 8.960008 -1.99952758 8.95653201 0 9 C0 9.99 0 10.98 0 12 C-1.98 12.66 -3.96 13.32 -6 14 C-6 16.31 -6 18.62 -6 21 C-7.32 21.33 -8.64 21.66 -10 22 C-10.67286212 19.58490559 -11.33846012 17.16819644 -12 14.75 C-12.28617187 13.72712891 -12.28617187 13.72712891 -12.578125 12.68359375 C-13.49957044 9.29399088 -14 6.54221024 -14 3 C-12.0424015 2.49713066 -10.08389623 1.9977901 -8.125 1.5 C-7.03445313 1.2215625 -5.94390625 0.943125 -4.8203125 0.65625 C-2 0 -2 0 0 0 Z"/>
<path transform="translate(290,293)" fill="#2D475F" d="M0 0 C1.423125 -0.061875 2.84625 -0.12375 4.3125 -0.1875 C5.51326172 -0.23970703 5.51326172 -0.23970703 6.73828125 -0.29296875 C9 0 9 0 10.76953125 1.328125 C12.67852079 3.92192666 12.38291467 5.87286357 12 9 C11.0625 11.375 11.0625 11.375 9 13 C5.92106988 13.33846395 3.11477081 13.18056642 0 13 C0 8.71 0 4.42 0 0 Z"/>
<path transform="translate(387,330)" fill="#1156B2" d="M0 0 C0.99 0.33 1.98 0.66 3 1 C3 2.98 3 4.96 3 7 C6.63 8.98 10.26 10.96 14 13 C13.67 14.65 13.34 16.3 13 18 C9.45756548 16.63408831 6.07372071 15.09068516 2.6875 13.375 C1.80449219 12.92898438 0.92148437 12.48296875 0.01171875 12.0234375 C-0.65214844 11.68570312 -1.31601562 11.34796875 -2 11 C-2.33 12.32 -2.66 13.64 -3 15 C-4.32 14.67 -5.64 14.34 -7 14 C-5.23570801 9.02790438 -2.6060834 4.56561939 0 0 Z"/>
<path transform="translate(219,292)" fill="#375066" d="M0 0 C1.258125 -0.04125 2.51625 -0.0825 3.8125 -0.125 C4.52019531 -0.14820313 5.22789062 -0.17140625 5.95703125 -0.1953125 C8 0 8 0 11 2 C11.29296875 4.8203125 11.29296875 4.8203125 11.1875 8.125 C11.16042969 9.22070312 11.13335937 10.31640625 11.10546875 11.4453125 C11.07066406 12.28835938 11.03585938 13.13140625 11 14 C10.01 14 9.02 14 8 14 C8 12.68 8 11.36 8 10 C6.68 10 5.36 10 4 10 C4 11.32 4 12.64 4 14 C2.68 14 1.36 14 0 14 C0 9.38 0 4.76 0 0 Z"/>
<path transform="translate(286,140)" fill="#FFD864" d="M0 0 C2 2 2 2 2 6 C4.31 6 6.62 6 9 6 C8.319375 6.515625 7.63875 7.03125 6.9375 7.5625 C4.57571378 9.97254504 4.57571378 9.97254504 5.25 13.75 C5.4975 14.8225 5.745 15.895 6 17 C5.4225 16.67 4.845 16.34 4.25 16 C1.80116138 14.72924102 1.80116138 14.72924102 -2 15 C-4.22743787 16.41977909 -4.22743787 16.41977909 -6 18 C-5.7525 16.7625 -5.505 15.525 -5.25 14.25 C-4.90427779 12.07896977 -4.90427779 12.07896977 -5 10 C-6.77154652 7.47409152 -6.77154652 7.47409152 -9 6 C-6.69 6 -4.38 6 -2 6 C-1.855625 5.195625 -1.71125 4.39125 -1.5625 3.5625 C-1 1 -1 1 0 0 Z"/>
<path transform="translate(213,140)" fill="#FFD864" d="M0 0 C1.5 1.3125 1.5 1.3125 3 3 C3 3.99 3 4.98 3 6 C5.31 6 7.62 6 10 6 C9.319375 6.495 8.63875 6.99 7.9375 7.5 C5.80204136 9.74267312 5.80204136 9.74267312 5.95703125 12.046875 C6.22259233 14.04389436 6.60490464 16.02452318 7 18 C5.35 16.68 3.7 15.36 2 14 C1.401875 14.309375 0.80375 14.61875 0.1875 14.9375 C-2 16 -2 16 -5 17 C-4.7525 15.9275 -4.505 14.855 -4.25 13.75 C-3.57571378 9.97254504 -3.57571378 9.97254504 -5.9375 7.5625 C-6.618125 7.046875 -7.29875 6.53125 -8 6 C-5.69 6 -3.38 6 -1 6 C-0.67 4.02 -0.34 2.04 0 0 Z"/>
<path transform="translate(277,293)" fill="#1B3851" d="M0 0 C1.32 0 2.64 0 4 0 C5.75 2.5 5.75 2.5 7 5 C7.33 3.35 7.66 1.7 8 0 C8.99 0 9.98 0 11 0 C11 4.29 11 8.58 11 13 C7 12 7 12 5.25 9.4375 C4.8375 8.633125 4.425 7.82875 4 7 C3.67 8.98 3.34 10.96 3 13 C2.01 13 1.02 13 0 13 C0 8.71 0 4.42 0 0 Z"/>
<path transform="translate(236,293)" fill="#243F58" d="M0 0 C1.32 0 2.64 0 4 0 C4.67057887 1.7902061 5.3363469 3.58221489 6 5.375 C6.556875 6.87160156 6.556875 6.87160156 7.125 8.3984375 C8 11 8 11 8 13 C7.01 13 6.02 13 5 13 C4.67 12.34 4.34 11.68 4 11 C1.47266765 10.34444881 1.47266765 10.34444881 -1 10 C-1 10.99 -1 11.98 -1 13 C-1.99 13 -2.98 13 -4 13 C-3.50269348 8.02693484 -2.44697666 4.36200187 0 0 Z"/>
<path transform="translate(390,321)" fill="#1156B2" d="M0 0 C3.96797047 0.79159007 7.56409284 2.4480427 11.25 4.0625 C12.22453125 4.48499023 12.22453125 4.48499023 13.21875 4.91601562 C14.81369086 5.6079385 16.40700934 6.303599 18 7 C17.67 8.32 17.34 9.64 17 11 C12.51006131 10.41347648 8.77456816 9.2356462 4.625 7.4375 C3.56539063 6.98246094 2.50578125 6.52742188 1.4140625 6.05859375 C0.61742187 5.70925781 -0.17921875 5.35992187 -1 5 C-0.67 3.35 -0.34 1.7 0 0 Z"/>
<path transform="translate(257,293)" fill="#254059" d="M0 0 C3.3 0 6.6 0 10 0 C10 0.66 10 1.32 10 2 C7.69 2 5.38 2 3 2 C3 2.99 3 3.98 3 5 C4.98 5 6.96 5 9 5 C9 5.99 9 6.98 9 8 C7.02 8 5.04 8 3 8 C3 8.66 3 9.32 3 10 C5.31 10 7.62 10 10 10 C10 10.99 10 11.98 10 13 C6.7 13 3.4 13 0 13 C0 8.71 0 4.42 0 0 Z"/>
<path transform="translate(208,293)" fill="#223D56" d="M0 0 C3.3 0 6.6 0 10 0 C10 0.66 10 1.32 10 2 C7.69 2 5.38 2 3 2 C3 2.99 3 3.98 3 5 C4.98 5 6.96 5 9 5 C9 5.99 9 6.98 9 8 C7.02 8 5.04 8 3 8 C3 8.66 3 9.32 3 10 C5.31 10 7.62 10 10 10 C10 10.99 10 11.98 10 13 C6.7 13 3.4 13 0 13 C0 8.71 0 4.42 0 0 Z"/>
<path transform="translate(403.3125,305.75)" fill="#F2F6FB" d="M0 0 C3.78517206 0.25662183 5.01775858 0.68704824 7.6875 3.25 C6.8125 8.125 6.8125 8.125 5.6875 9.25 C-0.55771739 9.7126087 -0.55771739 9.7126087 -3.25 8.0625 C-4.65693368 5.66243666 -4.60042759 3.98531209 -4.3125 1.25 C-3.3125 0.25 -3.3125 0.25 0 0 Z"/>
<path transform="translate(221,417)" fill="#E1EAF5" d="M0 0 C2.625 0.375 2.625 0.375 5 1 C5.33 1.99 5.66 2.98 6 4 C7.32 4 8.64 4 10 4 C10.33 3.34 10.66 2.68 11 2 C11 2.99 11 3.98 11 5 C10.34 5.66 9.68 6.32 9 7 C5.375 6.625 5.375 6.625 2 6 C2 6.99 2 7.98 2 9 C2.99 9.33 3.98 9.66 5 10 C4.67 10.66 4.34 11.32 4 12 C1.625 12.125 1.625 12.125 -1 12 C-3 10 -3 10 -3.046875 8.125 C-2.94890625 7.42375 -2.8509375 6.7225 -2.75 6 C-2.66234375 5.29875 -2.5746875 4.5975 -2.484375 3.875 C-2 2 -2 2 0 0 Z"/>
<path transform="translate(308.375,408.6875)" fill="#F6F9FC" d="M0 0 C2.625 0.3125 2.625 0.3125 4.4375 2 C5.82675677 4.70539476 6.01999804 6.31051488 5.625 9.3125 C3.625 11.3125 3.625 11.3125 1.1875 11.75 C-1.375 11.3125 -1.375 11.3125 -3.25 9.125 C-4.52599193 5.93502017 -4.44732217 4.52946652 -3.375 1.3125 C-2.375 0.3125 -2.375 0.3125 0 0 Z"/>
<path transform="translate(243,365)" fill="#FFD65A" d="M0 0 C1.98 0.66 3.96 1.32 6 2 C6 6.95 6 11.9 6 17 C4.02 17.33 2.04 17.66 0 18 C0 12.06 0 6.12 0 0 Z"/>
<path transform="translate(362,372)" fill="#EBF0F8" d="M0 0 C5.75 0.75 5.75 0.75 8 3 C8.125 6.125 8.125 6.125 8 9 C6.02 9.99 6.02 9.99 4 11 C1.69 8.69 -0.62 6.38 -3 4 C-2.01 2.68 -1.02 1.36 0 0 Z"/>
<path transform="translate(180,293)" fill="#385167" d="M0 0 C1.32 0 2.64 0 4 0 C4 3.3 4 6.6 4 10 C5.98 10 7.96 10 10 10 C10 10.99 10 11.98 10 13 C6.7 13 3.4 13 0 13 C0 8.71 0 4.42 0 0 Z"/>
<path transform="translate(245,293)" fill="#354F65" d="M0 0 C3.63 0 7.26 0 11 0 C11 0.66 11 1.32 11 2 C9.68 2 8.36 2 7 2 C7 5.63 7 9.26 7 13 C5.68 13 4.36 13 3 13 C3 9.7 3 6.4 3 3 C2.01 3 1.02 3 0 3 C0 2.01 0 1.02 0 0 Z"/>
<path transform="translate(168,169)" fill="#FFF7DF" d="M0 0 C0.33 0 0.66 0 1 0 C0.67 2.97 0.34 5.94 0 9 C2.97 8.34 5.94 7.68 9 7 C9 7.33 9 7.66 9 8 C11.64 8.33 14.28 8.66 17 9 C17 9.33 17 9.66 17 10 C15.64068359 10.05607422 15.64068359 10.05607422 14.25390625 10.11328125 C6.95479731 10.50720141 0.8011093 11.30300838 -6 14 C-4.02 9.38 -2.04 4.76 0 0 Z"/>
<path transform="translate(330,168)" fill="#FFF9E6" d="M0 0 C1.95220847 2.9283127 3.5335065 5.86314325 5.125 9 C5.66382813 10.051875 6.20265625 11.10375 6.7578125 12.1875 C8 15 8 15 8 18 C7.13375 17.38125 6.2675 16.7625 5.375 16.125 C-0.19641632 12.87212339 -6.70126588 12.66394423 -13 12 C-13 11.67 -13 11.34 -13 11 C-2.44191344 9.48291572 -2.44191344 9.48291572 2 12 C1.505 10.4221875 1.505 10.4221875 1 8.8125 C0.16033218 5.61126643 -0.19750904 3.2588992 0 0 Z"/>
<path transform="translate(196,293)" fill="#1F3B54" d="M0 0 C3.3 0 6.6 0 10 0 C10 0.66 10 1.32 10 2 C9.01 2 8.02 2 7 2 C7 5.63 7 9.26 7 13 C6.01 13 5.02 13 4 13 C4 9.37 4 5.74 4 2 C2.68 2 1.36 2 0 2 C0 1.34 0 0.68 0 0 Z"/>
<path transform="translate(303,293)" fill="#254059" d="M0 0 C0.99 0 1.98 0 3 0 C3 4.29 3 8.58 3 13 C2.01 13 1.02 13 0 13 C0 8.71 0 4.42 0 0 Z"/>
<path transform="translate(272,293)" fill="#17344E" d="M0 0 C0.99 0 1.98 0 3 0 C3 4.29 3 8.58 3 13 C2.01 13 1.02 13 0 13 C0 8.71 0 4.42 0 0 Z"/>
<path transform="translate(191,293)" fill="#17344E" d="M0 0 C0.99 0 1.98 0 3 0 C3 4.29 3 8.58 3 13 C2.01 13 1.02 13 0 13 C0 8.71 0 4.42 0 0 Z"/>
<path transform="translate(294,296)" fill="#EEF0F2" d="M0 0 C2.475 0.495 2.475 0.495 5 1 C4.67 2.98 4.34 4.96 4 7 C2.68 7 1.36 7 0 7 C0 4.69 0 2.38 0 0 Z"/>
<path transform="translate(236,293)" fill="#5B7082" d="M0 0 C1.32 0 2.64 0 4 0 C4.33 1.32 4.66 2.64 5 4 C4.34 4 3.68 4 3 4 C3 5.32 3 6.64 3 8 C2.01 8 1.02 8 0 8 C-0.38063221 5.6739143 -0.71269945 3.33944736 -1 1 C-0.67 0.67 -0.34 0.34 0 0 Z"/>
<path transform="translate(264,419)" fill="#DBE5F3" d="M0 0 C1.98 0 3.96 0 6 0 C6 1.32 6 2.64 6 4 C4.02 4.33 2.04 4.66 0 5 C0 3.35 0 1.7 0 0 Z"/>
<path transform="translate(114,344)" fill="#DFE8F4" d="M0 0 C0.99 0 1.98 0 3 0 C3.33 2.31 3.66 4.62 4 7 C3.34 7 2.68 7 2 7 C1.67 8.32 1.34 9.64 1 11 C0.67 7.37 0.34 3.74 0 0 Z"/>
<path transform="translate(217,298)" fill="#F4F5F6" d="M0 0 C0.66 0.33 1.32 0.66 2 1 C2 3.31 2 5.62 2 8 C1.67 7.01 1.34 6.02 1 5 C-1.31 5 -3.62 5 -6 5 C-6 4.34 -6 3.68 -6 3 C-4.02 3 -2.04 3 0 3 C0 2.01 0 1.02 0 0 Z"/>
<path transform="translate(109,347)" fill="#CFDDEF" d="M0 0 C2 3 2 3 1.625 5.1875 C1.41875 5.785625 1.2125 6.38375 1 7 C0.01 6.67 -0.98 6.34 -2 6 C-2.33 4.35 -2.66 2.7 -3 1 C-2.01 0.67 -1.02 0.34 0 0 Z"/>
<path transform="translate(93,283)" fill="#D2DFF0" d="M0 0 C0.99 0.33 1.98 0.66 3 1 C2.67 2.65 2.34 4.3 2 6 C1.01 6 0.02 6 -1 6 C-0.67 4.02 -0.34 2.04 0 0 Z"/>
<path transform="translate(312,296)" fill="#768796" d="M0 0 C0.99 0.33 1.98 0.66 3 1 C3 2.32 3 3.64 3 5 C1.35 4.67 -0.3 4.34 -2 4 C-2 3.01 -2 2.02 -2 1 C-1.34 0.67 -0.68 0.34 0 0 Z"/>
<path transform="translate(222,295)" fill="#B1BBC4" d="M0 0 C2.475 0.495 2.475 0.495 5 1 C4.67 1.99 4.34 2.98 4 4 C2.68 4 1.36 4 0 4 C0 2.68 0 1.36 0 0 Z"/>
<path transform="translate(201,413)" fill="#D4E0F1" d="M0 0 C0.33 0 0.66 0 1 0 C1 2.31 1 4.62 1 7 C-0.32 6.67 -1.64 6.34 -3 6 C-2.01 4.02 -1.02 2.04 0 0 Z"/>
</svg>